<svg xmlns="http://www.w3.org/2000/svg" width="46" height="46" viewBox="0 0 46 46">
  <path id="Path_21" data-name="Path 21" d="M25,2.008a23,23,0,0,0-1.74,45.928l.07.006c.552.04,1.108.066,1.67.066s1.118-.027,1.67-.066l.07-.006A23,23,0,0,0,25,2.008Zm0,2a21,21,0,0,1,14.99,35.7,20.465,20.465,0,0,0-5.312-2.465c-2.084-.73-4.056-1.422-4.6-2.625-.086-1.027-.078-1.829-.07-2.75l0-.391a9.708,9.708,0,0,0,2.387-4.275c.66-.352,1.467-1.2,1.709-3.217a3.1,3.1,0,0,0-.564-2.3c.54-1.855,1.614-6.551-.268-9.582A5.246,5.246,0,0,0,29.7,9.7C28.808,8.6,27.135,8,24.9,8,21.5,8.063,19,9.1,17.49,11.1c-1.783,2.35-2.12,5.9-1,10.559a3.087,3.087,0,0,0-.588,2.332c.243,2.021,1.047,2.865,1.707,3.217a9.7,9.7,0,0,0,2.387,4.277l0,.381c.008.925.016,1.729-.07,2.76-.548,1.206-2.529,1.905-4.623,2.644a20.891,20.891,0,0,0-5.287,2.451A21,21,0,0,1,25,4.008Z" transform="translate(-2 -2.008)" fill="#faf4f4"/>
</svg>
