<svg xmlns="http://www.w3.org/2000/svg" width="32.372" height="31.869" viewBox="0 0 32.372 31.869">
  <path id="Path_16" data-name="Path 16" d="M25.637,2.293,19.313,8.519l-2.99-2.943L13.965,7.9l1.322,1.3-3.68,3.623a4.895,4.895,0,0,0,0,6.964l1.466,1.443L2.293,31.841l2.358,2.321L15.431,23.55,16.9,24.993a5.084,5.084,0,0,0,7.074,0l3.68-3.623,1.322,1.3L31.33,20.35l-2.99-2.943,6.325-6.226L32.307,8.859l-6.325,6.226-4.312-4.245L28,4.614ZM17.645,11.52l7.647,7.528-3.68,3.623a1.66,1.66,0,0,1-2.358,0l-5.289-5.207a1.6,1.6,0,0,1,0-2.321Z" transform="translate(-2.293 -2.293)" fill="#fff"/>
</svg>
