<?xml version="1.0" encoding="utf-8"?>
<svg xmlns="http://www.w3.org/2000/svg" viewBox="0 0 24 24" width="48" height="48">
  <path d="M15.828125 2.0292969C15.0505 2.0291719 14.273531 2.3119062 13.707031 2.8789062L11.5 5.0859375L10.707031 4.2929688L9.2929688 5.7070312L11.085938 7.5L9.2929688 9.2929688L10.707031 10.707031L12.5 8.9140625L15.085938 11.5L13.292969 13.292969L14.707031 14.707031L16.5 12.914062L18.292969 14.707031L19.707031 13.292969L18.914062 12.5L21.121094 10.292969C22.291094 9.1229688 22.291094 7.2207812 21.121094 6.0507812L20.242188 5.171875L21.707031 3.7070312L20.292969 2.2929688L18.828125 3.7578125L17.949219 2.8789062C17.383219 2.3124062 16.60575 2.0294219 15.828125 2.0292969 z M 5.7070312 9.2929688L4.2929688 10.707031L5.0859375 11.5L2.8789062 13.707031C1.7089063 14.877031 1.7089063 16.779219 2.8789062 17.949219L3.7578125 18.828125L2.2929688 20.292969L3.7070312 21.707031L5.171875 20.242188L6.0507812 21.121094C6.6167812 21.687094 7.369875 22 8.171875 22C8.972875 22 9.7269688 21.688094 10.292969 21.121094L12.5 18.914062L13.292969 19.707031L14.707031 18.292969L5.7070312 9.2929688 z" fill="#FFFFFF" />
</svg>