<?xml version="1.0" encoding="utf-8"?>
<svg xmlns="http://www.w3.org/2000/svg" viewBox="0 0 32 32" width="96" height="96">
  <path d="M15.875 4L15.78125 4.03125L7.78125 5.90625L7 6.09375L7 26.34375L7.8125 26.46875L15.8125 27.96875L15.90625 28L18 28L18 4 Z M 20 6L20 8L23 8L23 24L20 24L20 26L25 26L25 6 Z M 16 6.03125L16 26L9 24.6875L9 7.65625 Z M 14.34375 15C13.976563 15 13.65625 15.449219 13.65625 16C13.65625 16.550781 13.976563 17 14.34375 17C14.710938 17 15 16.550781 15 16C15 15.449219 14.710938 15 14.34375 15Z" fill="#FFFFFF" />
</svg>