<svg xmlns="http://www.w3.org/2000/svg" width="46.967" height="40.966" viewBox="0 0 46.967 46.966">
  <path id="Path_11" data-name="Path 11" d="M15.679,5.051a10.258,10.258,0,0,0-1.794.145A8.692,8.692,0,0,0,10.9,6.278,10.842,10.842,0,0,0,7.375,9.872c-3.519,5.481-2.746,11.194.542,15.05,3.1,3.632,8.121,5.8,13.566,6.041a7.353,7.353,0,0,0,.867,1.852,3.935,3.935,0,0,1-1.06,1.677,1.047,1.047,0,0,1-.825.136,5.831,5.831,0,0,1-2.236-.968,8.272,8.272,0,0,0-8.263-.293A8.632,8.632,0,0,0,5.23,39.412a9.757,9.757,0,0,0,1.048,6.75,10.842,10.842,0,0,0,3.594,3.529c5.481,3.519,11.194,2.746,15.05-.542,3.623-3.089,5.787-8.1,6.039-13.525a7.249,7.249,0,0,0,1.871-.9,3.9,3.9,0,0,1,1.66,1.055,1.047,1.047,0,0,1,.136.825,5.83,5.83,0,0,1-.968,2.236,8.272,8.272,0,0,0-.293,8.263,8.632,8.632,0,0,0,6.046,4.734,9.757,9.757,0,0,0,6.75-1.048,10.843,10.843,0,0,0,3.529-3.594C53.21,41.713,52.437,36,49.15,32.144c-3.1-3.634-8.128-5.8-13.578-6.041a7.356,7.356,0,0,0-.866-1.823,3.981,3.981,0,0,1,1.072-1.706,1.047,1.047,0,0,1,.825-.136,5.83,5.83,0,0,1,2.236.968A8.272,8.272,0,0,0,47.1,23.7a8.632,8.632,0,0,0,4.734-6.046,9.757,9.757,0,0,0-1.048-6.75,10.843,10.843,0,0,0-3.594-3.529,13.42,13.42,0,0,0-8.135-2.28,11.766,11.766,0,0,0-6.915,2.822c-3.633,3.1-5.8,8.124-6.041,13.571a7.249,7.249,0,0,0-1.823.874,3.981,3.981,0,0,1-1.706-1.072,1.047,1.047,0,0,1-.136-.825,5.831,5.831,0,0,1,.968-2.236A8.272,8.272,0,0,0,23.7,9.964,8.632,8.632,0,0,0,17.654,5.23,11.849,11.849,0,0,0,15.679,5.051ZM39.95,8.657A10.317,10.317,0,0,1,45.185,10.5a7.3,7.3,0,0,1,2.408,2.3,5.73,5.73,0,0,1,.578,4.209,5.271,5.271,0,0,1-2.762,3.374,4.37,4.37,0,0,1-4.565-.111,9.221,9.221,0,0,0-3.773-1.527,5.023,5.023,0,0,0-3.27.675,5.781,5.781,0,0,0-2.074,2.35,7.691,7.691,0,0,0-1.893-.542c.306-4.362,2.153-8.3,4.722-10.487A7.822,7.822,0,0,1,39.95,8.657Zm-24.305.1a8.933,8.933,0,0,1,1.37.138,5.27,5.27,0,0,1,3.374,2.762,4.37,4.37,0,0,1-.111,4.565,9.222,9.222,0,0,0-1.527,3.773,5.023,5.023,0,0,0,.675,3.27,5.781,5.781,0,0,0,2.35,2.074,7.745,7.745,0,0,0-.566,1.893c-4.352-.311-8.276-2.158-10.463-4.722-2.4-2.815-3.06-6.239-.242-10.628a7.3,7.3,0,0,1,2.3-2.408A5.1,5.1,0,0,1,15.645,8.756ZM28.533,24.839a3.425,3.425,0,0,1,2.793,1.118,4.113,4.113,0,0,1,0,5.2,3.426,3.426,0,0,1-2.793,1.121,3.426,3.426,0,0,1-2.793-1.121,4.113,4.113,0,0,1,0-5.2A3.425,3.425,0,0,1,28.533,24.839Zm7.329,5c4.351.312,8.272,2.159,10.458,4.722,2.4,2.815,3.06,6.239.242,10.628a7.3,7.3,0,0,1-2.3,2.408,5.73,5.73,0,0,1-4.209.578,5.271,5.271,0,0,1-3.374-2.762,4.37,4.37,0,0,1,.111-4.565,9.221,9.221,0,0,0,1.527-3.773,5.023,5.023,0,0,0-.675-3.27,5.775,5.775,0,0,0-2.333-2.067A7.735,7.735,0,0,0,35.862,29.835ZM25.321,35.327a7.675,7.675,0,0,0,1.907.552c-.316,4.344-2.159,8.258-4.72,10.441-2.815,2.4-6.239,3.06-10.628.242a7.3,7.3,0,0,1-2.408-2.3,5.73,5.73,0,0,1-.578-4.209,5.27,5.27,0,0,1,2.762-3.374,4.37,4.37,0,0,1,4.565.111,9.221,9.221,0,0,0,3.773,1.527,5.023,5.023,0,0,0,3.27-.675A5.768,5.768,0,0,0,25.321,35.327Z" transform="translate(-5.05 -5.051)" fill="#fff"/>
</svg>
