<svg xmlns="http://www.w3.org/2000/svg" width="51.956" height="48" viewBox="0 0 51.956 48">
  <path id="Path_19" data-name="Path 19" d="M36,10a4.986,4.986,0,0,0-3.205,1.162L11.518,28.941a4.066,4.066,0,0,0-1.057,5.008,4,4,0,0,0,6.1,1.2l18.795-15.7a1,1,0,0,1,1.281,0l18.795,15.7a4,4,0,0,0,5.691-.574,4.125,4.125,0,0,0-.707-5.685L58,26.867v-10.2A2.668,2.668,0,0,0,55.334,14H52.668A2.669,2.669,0,0,0,50,16.668v3.514l-10.795-9.02A4.986,4.986,0,0,0,36,10Zm0,12.92L14,41.3V50a8,8,0,0,0,8,8h6a4,4,0,0,0,4-4V45a2,2,0,0,1,2-2h4a2,2,0,0,1,2,2v9a4,4,0,0,0,4,4h6a8,8,0,0,0,8-8V41.3Z" transform="translate(-10.005 -10)" fill="#fefefe"/>
</svg>
