<svg xmlns="http://www.w3.org/2000/svg" width="14" height="26.013" viewBox="0 0 14 26.013">
  <path id="Path_18" data-name="Path 18" d="M15,2a3,3,0,0,0-3,3V17a3,3,0,0,0,6,0V5A3,3,0,0,0,15,2ZM8.984,11.986A1,1,0,0,0,8,13v4a7.013,7.013,0,0,0,6,6.92V26H11a1,1,0,1,0,0,2h3.832a1,1,0,0,0,.326,0H19a1,1,0,1,0,0-2H16V23.92A7.013,7.013,0,0,0,22,17V13a1,1,0,1,0-2,0v4a4.981,4.981,0,0,1-4.887,4.994.908.908,0,0,0-.238,0A4.981,4.981,0,0,1,10,17V13a1,1,0,0,0-1.016-1.014Z" transform="translate(-8 -2)" fill="#f7f6f6"/>
</svg>
