<?xml version="1.0" encoding="utf-8"?>
<svg xmlns="http://www.w3.org/2000/svg" viewBox="0 0 24 24" width="48" height="48">
  <path d="M7 5C3.1456661 5 0 8.1456661 0 12C0 15.854334 3.1456661 19 7 19C9.7677882 19 12.102239 17.343881 13.234375 15L16 15L16 18L22 18L22 15L24 15L24 9L23 9L13.234375 9C12.102239 6.6561188 9.7677882 5 7 5 z M 7 7C9.1843435 7 11.022854 8.394666 11.708984 10.333984L11.943359 11L22 11L22 13L20 13L20 16L18 16L18 13L11.943359 13L11.708984 13.666016C11.022854 15.605334 9.1843435 17 7 17C4.2263339 17 2 14.773666 2 12C2 9.2263339 4.2263339 7 7 7 z M 7 9C5.3549904 9 4 10.35499 4 12C4 13.64501 5.3549904 15 7 15C8.6450096 15 10 13.64501 10 12C10 10.35499 8.6450096 9 7 9 z M 7 11C7.5641294 11 8 11.435871 8 12C8 12.564129 7.5641294 13 7 13C6.4358706 13 6 12.564129 6 12C6 11.435871 6.4358706 11 7 11 z" fill="#13130F" />
</svg>